<?xml version="1.0" encoding="UTF-8"?>
<svg version="1.1" xmlns="http://www.w3.org/2000/svg" width="2012" height="1160">
<path d="M0 0 C4.43157742 4.07004333 7.5585674 8.56044481 10.8125 13.6015625 C11.64915695 14.88055168 11.64915695 14.88055168 12.50271606 16.18537903 C13.70875167 18.0298254 14.91220398 19.87596297 16.11334229 21.72360229 C19.3514223 26.7032856 22.60960266 31.66978145 25.8671875 36.63671875 C26.53861786 37.66122635 27.21004822 38.68573395 27.90182495 39.74128723 C34.8797599 50.37208443 41.99429409 60.90884025 49.125 71.4375 C56.98805849 83.05807474 64.83292557 94.68644877 72.5 106.4375 C73.04340027 107.27022934 73.04340027 107.27022934 73.59777832 108.11978149 C75.11346723 110.44319395 76.62864322 112.76694011 78.14331055 115.09101868 C94.97421359 140.90536118 112.00462752 166.58334136 129.26977539 192.10913086 C137.83219935 204.77002299 146.34080263 217.46572211 154.8125 230.1875 C155.38559906 231.04808014 155.95869812 231.90866028 156.54916382 232.7953186 C159.70108588 237.52912045 162.85133353 242.26403215 166 247 C172.33695067 238.5245451 178.21634249 229.78002696 184.05792236 220.95999146 C186.909205 216.65572834 189.7689534 212.35709908 192.62890625 208.05859375 C193.22652771 207.16019272 193.82414917 206.26179169 194.43988037 205.33616638 C201.28986898 195.04790476 208.20623469 184.80457857 215.125 174.5625 C226.16686062 158.2155796 226.16686062 158.2155796 237.125 141.8125 C243.93056362 131.57125283 250.80526771 121.3773231 257.6875 111.1875 C258.25717499 110.34402008 258.82684998 109.50054016 259.41378784 108.63150024 C262.37710552 104.24419191 265.3408379 99.85716385 268.3046875 95.47021484 C274.60196051 86.14883596 280.8959086 76.82521461 287.1875 67.5 C287.80428619 66.58589355 288.42107239 65.67178711 289.05654907 64.72998047 C296.02463208 54.40133412 302.97628068 44.06261568 309.875 33.6875 C311.6493734 31.02617667 313.42440059 28.36529084 315.19970703 25.70458984 C316.48775287 23.76955163 317.77217592 21.83209999 319.05419922 19.89306641 C321.13077569 16.75558363 323.220376 13.62712985 325.3125 10.5 C325.9420459 9.54182373 326.5715918 8.58364746 327.22021484 7.59643555 C327.80367676 6.72929932 328.38713867 5.86216309 328.98828125 4.96875 C329.75458862 3.81536133 329.75458862 3.81536133 330.53637695 2.63867188 C331.01937256 2.09791016 331.50236816 1.55714844 332 1 C332.99 1 333.98 1 335 1 C335.21059052 1.59054169 335.42118103 2.18108337 335.63815308 2.78952026 C346.84486134 34.21322172 358.09011638 65.62250408 369.40126038 97.00878906 C374.09445541 110.03376708 378.77566043 123.063055 383.45711899 136.09225464 C384.18840189 138.12751008 384.91971199 140.16275575 385.65103149 142.19799805 C387.86808449 148.36799908 390.08508003 154.53802076 392.30199146 160.70807266 C396.65220053 172.81543661 401.00323761 184.92250295 405.35432434 197.02955151 C407.02091684 201.66690607 408.68747133 206.30427429 410.35400391 210.94165039 C414.24254825 221.76209011 418.1311064 232.58252485 422.02001953 243.40283203 C422.27123031 244.10179376 422.52244108 244.80075548 422.78126431 245.52089787 C424.04795809 249.04529671 425.31469177 252.5696812 426.58149719 256.09403992 C429.04106753 262.93693563 431.49995153 269.78007651 433.95727539 276.6237793 C434.89071614 279.22317026 435.82423523 281.82253307 436.7578125 284.421875 C436.98369741 285.05082987 437.20958233 285.67978474 437.44231224 286.32779884 C440.11180476 293.7596715 442.78902581 301.18866245 445.47993469 308.61280823 C446.82943162 312.33616288 448.17590997 316.06060559 449.52218628 319.78512573 C450.40921558 322.23440074 451.30129985 324.68179311 452.19360352 327.12915039 C452.71137678 328.56126073 453.22889269 329.99346416 453.74609375 331.42578125 C454.40629517 333.24203003 454.40629517 333.24203003 455.07983398 335.0949707 C456 338 456 338 456 341 C448.59850003 341.05086743 441.19704546 341.08580388 433.79541016 341.10986328 C431.2794425 341.11989737 428.76348643 341.13352768 426.24755859 341.15087891 C422.62334322 341.17524097 418.99928256 341.18650931 415.375 341.1953125 C413.69796997 341.21079636 413.69796997 341.21079636 411.98706055 341.22659302 C404.41193208 341.22767205 398.19685061 341.13107557 391.71044922 336.80712891 C388.79397571 333.78662698 387.15830898 330.92764684 385.6328125 327.0859375 C385.34487823 326.39462738 385.05694397 325.70331726 384.76028442 324.99105835 C381.22209765 316.35019818 378.10189571 307.54368359 374.98175049 298.74551392 C373.43411978 294.38192592 371.87351015 290.02300697 370.31417847 285.66358948 C369.48418917 283.34256825 368.6548732 281.02130614 367.82620239 278.69981384 C363.13350909 265.55584841 358.38050044 252.43384377 353.625 239.3125 C352.74704731 236.88876159 351.86911767 234.46501482 350.99121094 232.04125977 C344.71287981 214.71122568 338.42225875 197.38566372 332.125 180.0625 C331.50567596 178.35835434 331.50567596 178.35835434 330.87384033 176.61978149 C325.94810435 163.06788408 320.9987136 149.52515993 316 136 C309.95608896 143.9473909 304.60263847 152.24240077 299.2746582 160.68041992 C295.92981942 165.97452153 292.55810381 171.24167108 289.0625 176.4375 C282.92649993 185.56433777 276.94556755 194.79191405 270.94677734 204.00927734 C267.84215192 208.77873577 264.73372173 213.54571088 261.625 218.3125 C261.01180908 219.25287109 260.39861816 220.19324219 259.7668457 221.16210938 C254.29704811 229.54861257 248.81712932 237.92848283 243.33642578 246.30786133 C238.71891937 253.36841789 234.1070565 260.43262098 229.5 267.5 C220.62551406 281.11311766 211.72923846 294.71197132 202.83398438 308.31152344 C201.39462871 310.51216432 199.95533816 312.7128478 198.51611328 314.91357422 C197.09799583 317.08198414 195.67970388 319.25027995 194.26123047 321.41845703 C190.75827539 326.77443049 187.26078736 332.13385052 183.7734375 337.5 C183.09619629 338.5413208 182.41895508 339.5826416 181.72119141 340.65551758 C180.44868817 342.61281478 179.17743773 344.57092731 177.90771484 346.5300293 C174.71443331 351.4403172 171.44677604 356.26392239 168 361 C164.59241713 359.86413904 164.32645093 359.38248773 162.5390625 356.44921875 C162.07467773 355.69882324 161.61029297 354.94842773 161.13183594 354.17529297 C160.63458008 353.35432129 160.13732422 352.53334961 159.625 351.6875 C158.54034772 349.93279865 157.45436864 348.17891689 156.3671875 346.42578125 C155.80870117 345.52166504 155.25021484 344.61754883 154.67480469 343.68603516 C152.09199996 339.54375854 149.4231743 335.45931543 146.75 331.375 C141.79081669 323.77688177 136.88379473 316.14678008 132 308.5 C127.19655561 300.98022719 122.37361416 293.47449553 117.5 286 C112.62638513 278.52550338 107.80355712 271.01970162 103 263.5 C96.53861022 253.3861184 90.02057265 243.31083105 83.46875 233.25537109 C75.93402545 221.68526049 68.47911524 210.06504173 61.04370117 198.4309082 C56.37950336 191.1390709 51.67797912 183.87280123 46.94946289 176.62255859 C41.7681952 168.66752949 36.65698023 160.66794417 31.5546875 152.66210938 C27.76849978 146.7293913 23.92680971 140.84055194 20 135 C16.02151111 144.04169578 12.38683984 153.11936452 9.0859375 162.43359375 C8.63445713 163.69682031 8.18254495 164.9598926 7.73023987 166.2228241 C6.77208577 168.90048365 5.8164742 171.57902994 4.86300659 174.25836182 C2.56360717 180.71932701 0.25097345 187.17556138 -2.06034279 193.63227081 C-2.8493099 195.83665157 -3.63776247 198.04121593 -4.42619324 200.24578857 C-7.65178901 209.26100103 -10.90246126 218.26653999 -14.18359375 227.26171875 C-14.59141083 228.3797438 -14.99922791 229.49776886 -15.41940308 230.64967346 C-17.03437347 235.07444596 -18.65053246 239.49878097 -20.26867676 243.9223938 C-24.98684117 256.82707135 -29.63513669 269.7531923 -34.16817284 282.7239418 C-34.92195885 284.87969333 -35.67729998 287.0348934 -36.43318176 289.18991089 C-36.93259818 290.61407067 -37.43200313 292.03823448 -37.93139648 293.46240234 C-38.17725274 294.16341505 -38.423109 294.86442776 -38.67641544 295.58668327 C-40.12303128 299.71552997 -41.55778305 303.84826242 -42.98372555 307.98429108 C-43.65668423 309.93004558 -44.33536877 311.8736909 -45.01652527 313.81658936 C-45.84647748 316.18474666 -46.6672068 318.55616657 -47.47651672 320.93145752 C-52.99042503 336.54304293 -52.99042503 336.54304293 -59.81152344 340.7228241 C-63.18284688 342.07324113 -65.48501361 342.36383038 -69.09716797 342.34057617 C-70.86832474 342.34023628 -70.86832474 342.34023628 -72.67526245 342.33988953 C-74.56464035 342.31666374 -74.56464035 342.31666374 -76.4921875 342.29296875 C-77.79326447 342.28872391 -79.09434143 342.28447906 -80.43484497 342.28010559 C-83.87745763 342.26870479 -87.31968467 342.23927974 -90.762146 342.20599365 C-94.28148178 342.17518917 -97.80088047 342.1615782 -101.3203125 342.14648438 C-108.21369909 342.11440462 -115.10683098 342.06326684 -122 342 C-120.59751781 334.95080112 -118.51188217 328.37941804 -116.0625 321.62890625 C-115.67076096 320.53573593 -115.27902191 319.44256561 -114.87541199 318.31626892 C-113.58876047 314.72980445 -112.29442703 311.14616467 -111 307.5625 C-110.08916904 305.0303361 -109.17998092 302.49758325 -108.27075195 299.96484375 C-106.18204135 294.14941483 -104.08803887 288.33590858 -101.99153042 282.52328682 C-99.81729493 276.49478341 -97.64855053 270.46431234 -95.48046875 264.43359375 C-92.57087569 256.34260692 -89.65758421 248.25295977 -86.7421875 240.1640625 C-81.42294026 225.40440252 -76.11752704 210.63977514 -70.8125 195.875 C-70.3260005 194.52102605 -69.83949944 193.16705266 -69.35299683 191.81307983 C-67.38826814 186.345079 -65.42355011 180.87707433 -63.45890808 175.40904236 C-60.24857863 166.4741099 -57.03735621 157.53949879 -53.82553482 148.60510254 C-51.87541364 143.18035254 -49.92545085 137.75554561 -47.97547913 132.33074188 C-47.25080689 130.31474473 -46.52610082 128.29875974 -45.8013916 126.28277588 C-40.82521858 112.43979728 -35.85254992 98.59558811 -30.89453125 84.74609375 C-23.25992666 63.42081671 -15.60931076 42.10185883 -7.875 20.8125 C-7.35475754 19.37892151 -7.35475754 19.37892151 -6.82400513 17.91638184 C-5.86062241 15.26275695 -4.89551155 12.6097684 -3.9296875 9.95703125 C-3.64527298 9.17340714 -3.36085846 8.38978302 -3.06782532 7.58241272 C-1.11545541 2.23091081 -1.11545541 2.23091081 0 0 Z " fill="#000000" transform="translate(124,517)"/>
<path d="M0 0 C3.35505307 1.11835102 3.6067969 1.50748539 5.35546875 4.375 C5.80438477 5.09961426 6.25330078 5.82422852 6.71582031 6.57080078 C7.44430176 7.77325439 7.44430176 7.77325439 8.1875 9 C9.26851202 10.74802656 10.3505979 12.49538934 11.43359375 14.2421875 C12.01093262 15.17772461 12.58827148 16.11326172 13.18310547 17.07714844 C16.32127425 22.12554358 19.53845657 27.12308864 22.75 32.125 C24.11992267 34.2629369 25.48971292 36.40095865 26.859375 38.5390625 C27.54451172 39.60801758 28.22964844 40.67697266 28.93554688 41.77832031 C32.29272921 47.01736692 35.64623503 52.25876539 39 57.5 C43.02246543 63.78577921 47.04540557 70.07125253 51.0703125 76.35546875 C57.96802832 87.1265173 64.85339869 97.90516066 71.71582031 108.69873047 C78.11182594 118.75501374 84.53995139 128.79069555 90.96777344 138.82666016 C94.31304949 144.05033844 97.65643813 149.27522441 101 154.5 C102.33332409 156.58333925 103.66665743 158.66667258 105 160.75 C113 173.25 121 185.75 129 198.25 C129.66016113 199.2814917 130.32032227 200.3129834 131.00048828 201.37573242 C132.33223097 203.4566007 133.66393677 205.53749258 134.99560547 207.6184082 C138.35297179 212.8646523 141.71100188 218.11046939 145.0703125 223.35546875 C151.96802832 234.1265173 158.85339869 244.90516066 165.71582031 255.69873047 C172.10724612 265.747813 178.53114981 275.77605132 184.95458984 285.8046875 C187.00927333 289.01448668 189.0616145 292.22577186 191.11328125 295.4375 C192.47133345 297.56251324 193.82940616 299.68751337 195.1875 301.8125 C195.84347168 302.83972168 196.49944336 303.86694336 197.17529297 304.92529297 C200.38862186 309.94966906 203.62053056 314.96022219 206.89453125 319.9453125 C207.80779175 321.33786255 207.80779175 321.33786255 208.73950195 322.75854492 C209.88627842 324.50359805 211.03696718 326.24608844 212.19213867 327.9855957 C212.69592041 328.75218506 213.19970215 329.51877441 213.71875 330.30859375 C214.16154297 330.97689209 214.60433594 331.64519043 215.06054688 332.33374023 C216 334 216 334 216 336 C207.1246953 336.18573464 198.25006392 336.3276919 189.37323666 336.41449738 C185.25080952 336.4561705 181.12971613 336.51264633 177.00805664 336.60351562 C173.02680523 336.69073547 169.04683254 336.73833335 165.06469917 336.75901794 C163.54913772 336.77374851 162.03364279 336.80251695 160.51862907 336.84584045 C148.68663719 337.17059139 148.68663719 337.17059139 144.5663147 334.31092834 C142.75845258 332.28833543 141.37122024 330.33528692 140 328 C139.07373799 326.62314502 138.14676215 325.24676972 137.21875 323.87109375 C136.30595705 322.39726139 135.39998746 320.91918666 134.5 319.4375 C133.45740563 317.75416884 132.41305427 316.07192495 131.3671875 314.390625 C130.8215918 313.51212891 130.27599609 312.63363281 129.71386719 311.72851562 C126.74793527 307.00668442 123.68340431 302.34974986 120.625 297.6875 C113.87395152 287.37600272 107.23058776 276.99906166 100.640625 266.58398438 C99.468722 264.73823714 98.29098327 262.89618986 97.109375 261.05664062 C96.48546875 260.08404297 95.8615625 259.11144531 95.21875 258.109375 C94.65091797 257.22733398 94.08308594 256.34529297 93.49804688 255.43652344 C92 253 92 253 90.91210938 250.75097656 C89.68041897 248.38650023 88.44836684 247.97934674 86 247 C85.23377319 246.65852936 84.46754639 246.31705872 83.67810059 245.96524048 C80.92096665 244.97151482 78.87942913 244.72643872 75.96289062 244.68115234 C74.9676387 244.66129272 73.97238678 244.64143311 72.94697571 244.62097168 C71.86103622 244.6094104 70.77509674 244.59784912 69.65625 244.5859375 C68.49566574 244.56648071 67.33508148 244.54702393 66.139328 244.52697754 C62.93276338 244.47634764 59.72625177 244.43496364 56.51949692 244.39870453 C54.49575123 244.37495013 52.47208105 244.34774244 50.44839478 244.31939697 C27.0430072 243.99340368 3.63612181 243.89755477 -19.77133179 243.87751007 C-22.29482275 243.87501746 -24.8183082 243.87105774 -27.34179688 243.86688232 C-31.36452663 243.86093815 -35.38721716 243.86101001 -39.40994835 243.86555481 C-40.88338888 243.86661653 -42.3568316 243.86614082 -43.83027077 243.86387634 C-51.59054364 243.85395028 -59.33223069 243.98889909 -67.08276367 244.38330078 C-67.77199323 244.41364347 -68.46122278 244.44398617 -69.17133808 244.47524834 C-77.53583948 244.95765367 -83.38412635 246.8498129 -89 253 C-91.39558035 256.21220675 -93.48389446 259.57639665 -95.5625 263 C-96.79257882 264.98071096 -98.02305876 266.96117286 -99.25390625 268.94140625 C-99.87539551 269.94961426 -100.49688477 270.95782227 -101.13720703 271.99658203 C-103.47621641 275.76781315 -105.86942276 279.50255678 -108.2668457 283.23681641 C-113.75843135 291.79406678 -119.11096533 300.42605549 -124.375 309.125 C-132.32982156 322.22731587 -132.32982156 322.22731587 -135.5 327.1875 C-136.0465625 328.04730469 -136.593125 328.90710938 -137.15625 329.79296875 C-140.02029224 333.2213244 -142.7361013 335.60447579 -147.26118469 336.39505005 C-154.78420583 337.0403265 -162.21658014 337.0472225 -169.76171875 336.87890625 C-171.03352493 336.85529526 -172.30533112 336.83168427 -173.61567688 336.80735779 C-176.95787073 336.74424515 -180.29987457 336.67598105 -183.64190674 336.60510254 C-187.06782689 336.53375263 -190.49387717 336.46933803 -193.91992188 336.40429688 C-200.61341742 336.27584234 -207.30674876 336.14058165 -214 336 C-212.7379219 332.77312807 -211.4316232 329.87568971 -209.56640625 326.953125 C-209.08848633 326.20015137 -208.61056641 325.44717773 -208.11816406 324.67138672 C-207.34811035 323.47280029 -207.34811035 323.47280029 -206.5625 322.25 C-205.75570801 320.98373779 -205.75570801 320.98373779 -204.93261719 319.69189453 C-201.1202733 313.71817775 -197.27519799 307.76546987 -193.41699219 301.82128906 C-189.35662794 295.56381978 -185.33173386 289.28395196 -181.3125 283 C-180.63711182 281.94409668 -179.96172363 280.88819336 -179.26586914 279.80029297 C-177.17691906 276.53373761 -175.08838308 273.26691788 -173 270 C-157.417218 245.62340465 -157.417218 245.62340465 -150.21044922 234.51171875 C-143.42485771 224.03923078 -136.72106396 213.51395421 -130 203 C-114.38293118 178.56976879 -114.38293118 178.56976879 -107.08081055 167.31835938 C-103.3538078 161.56673459 -99.67470736 155.78514106 -96 150 C-91.90032735 143.54583038 -87.78754316 137.10131863 -83.625 130.6875 C-76.36131176 119.49387659 -69.1870517 108.24291228 -62 97 C-46.38293118 72.56976879 -46.38293118 72.56976879 -39.08081055 61.31835938 C-34.7450345 54.62725699 -30.47358253 47.89554026 -26.19970703 41.16479492 C-22.57825919 35.46606232 -18.92943865 29.78643665 -15.25 24.125 C-10.06551807 16.14600485 -5.01661525 8.08534735 0 0 Z M0 114 C-2.59777182 118.05694577 -5.09682387 122.12896409 -7.375 126.375 C-9.15494604 129.62469707 -11.1005263 132.64088631 -13.2578125 135.65234375 C-16.84278235 140.72941598 -20.19317499 145.92642182 -23.5 151.1875 C-27.36747836 157.31392525 -31.26029607 163.41978108 -35.2421875 169.47265625 C-35.93248047 170.52235596 -36.62277344 171.57205566 -37.33398438 172.65356445 C-38.67785625 174.69235954 -40.02542149 176.72872571 -41.37695312 178.76245117 C-41.98216797 179.68131104 -42.58738281 180.6001709 -43.2109375 181.546875 C-44.01990479 182.76648926 -44.01990479 182.76648926 -44.84521484 184.01074219 C-46.16734948 185.90492203 -46.16734948 185.90492203 -46 188 C-14.32 188 17.36 188 50 188 C49.11406497 184.45625987 48.53206247 183.01481675 46.53515625 180.16796875 C45.9949585 179.38824707 45.45476074 178.60852539 44.89819336 177.80517578 C44.29241455 176.94134277 43.68663574 176.07750977 43.0625 175.1875 C41.70862215 173.2320698 40.35727413 171.27488673 39.0078125 169.31640625 C38.63170334 168.77083069 38.25559418 168.22525513 37.86808777 167.66314697 C34.33821998 162.52634345 30.87997405 157.3428348 27.4296875 152.15234375 C26.85602951 151.2894725 26.28237152 150.42660126 25.69132996 149.5375824 C23.36251399 146.03269397 21.03502678 142.52693539 18.71096802 139.01889038 C17.05799719 136.52428931 15.40220075 134.03158223 13.74609375 131.5390625 C13.25587738 130.79700058 12.76566101 130.05493866 12.2605896 129.29039001 C7.18665154 120.52845545 7.18665154 120.52845545 0 114 Z " fill="#ED212B" transform="translate(1137,521)"/>
<path d="M0 0 C0.59296875 0.51820312 1.1859375 1.03640625 1.796875 1.5703125 C2.38984375 2.04726562 2.9828125 2.52421875 3.59375 3.015625 C12.27820519 10.66255679 16.95641894 22.69404044 18.0300293 34.03271484 C18.96207616 51.4958088 16.48819573 68.52038505 13.94004822 85.73020935 C10.51084166 108.99904337 7.75673013 132.29884427 5.39385986 155.69525146 C5.09681358 158.62250907 4.79423443 161.54918444 4.49175167 164.47588444 C0.78202369 198.66835282 0.78202369 198.66835282 -0.515625 233.0078125 C-0.53979492 234.93077148 -0.53979492 234.93077148 -0.56445312 236.89257812 C-0.57013287 247.93967403 0.9975998 258.20908079 8.796875 266.5703125 C14.59735698 270.69287728 20.86232522 271.52817837 27.796875 270.5703125 C49.76010627 265.98867364 68.02364636 250.60308782 85.11279297 236.91601562 C87.91107476 234.67998646 90.72919822 232.4693167 93.546875 230.2578125 C94.11575439 229.81099121 94.68463379 229.36416992 95.27075195 228.90380859 C106.29006631 220.25327409 117.31856974 211.62135545 128.55078125 203.24804688 C133.22042747 199.76412455 137.85528511 196.23720175 142.47998047 192.69384766 C152.78944786 184.80045715 163.17325544 177.03671179 173.796875 169.5703125 C174.51907227 169.06016602 175.24126953 168.55001953 175.98535156 168.02441406 C192.91891605 156.140021 210.69000831 145.9101689 230.796875 140.5703125 C231.44366211 140.39532227 232.09044922 140.22033203 232.75683594 140.04003906 C254.62007993 134.38671688 277.37842471 136.16761324 296.99316406 147.44238281 C301.48011101 150.24824298 305.15525567 153.76593923 308.796875 157.5703125 C309.41691406 158.15941406 310.03695312 158.74851562 310.67578125 159.35546875 C320.46436303 169.31923768 325.00336038 183.03742948 326.796875 196.5703125 C326.89162109 197.25287109 326.98636719 197.93542969 327.08398438 198.63867188 C336.91101305 270.72553319 326.13174031 344.12121731 298.609375 411.1328125 C298.13467773 412.29127686 297.65998047 413.44974121 297.17089844 414.64331055 C293.83555964 422.57192347 289.99309652 430.07115893 285.796875 437.5703125 C284.806875 437.5703125 283.816875 437.5703125 282.796875 437.5703125 C285.25263883 427.37147932 287.99237836 417.30417088 291.0296936 407.26403809 C298.44654165 382.64953445 304.16463952 358.05038994 307.796875 332.5703125 C307.93109863 331.63735352 308.06532227 330.70439453 308.20361328 329.74316406 C312.58187048 297.3157345 310.82815952 262.95269209 306.796875 230.5703125 C306.64702148 229.32652832 306.49716797 228.08274414 306.34277344 226.80126953 C303.26403693 199.12733532 303.26403693 199.12733532 288.546875 176.2578125 C279.31050853 169.08063596 269.08425211 168.3896576 257.796875 169.5703125 C229.87530786 174.45277233 205.2304529 193.26407464 183.43554688 210.29052734 C181.78270315 211.58138056 180.12585896 212.86697248 178.46875 214.15234375 C166.14932973 223.73922776 154.13865131 233.70239612 142.2487793 243.81518555 C138.43721524 247.04954771 134.55859983 250.18521231 130.640625 253.2890625 C127.65440927 255.6845982 124.7020289 258.11774112 121.75244141 260.55810547 C54.26069526 316.39531055 54.26069526 316.39531055 16.796875 313.5703125 C-0.63252023 310.99166547 -16.5566375 303.31660182 -27.38378906 289.01025391 C-36.88872634 275.80294667 -41.35838782 261.44773894 -44.203125 245.5703125 C-44.47129028 244.09582642 -44.47129028 244.09582642 -44.74487305 242.59155273 C-46.43541626 232.23517426 -46.64830553 221.98234082 -46.640625 211.5078125 C-46.64003082 210.54660492 -46.63943665 209.58539734 -46.63882446 208.59506226 C-46.55938702 186.3318657 -44.18010134 164.60795237 -41.203125 142.5703125 C-40.99316265 141.01265481 -40.78320179 139.45499692 -40.57324219 137.89733887 C-39.85828125 132.59793258 -39.14058758 127.29889868 -38.421875 122 C-38.23700248 120.63688344 -38.23700248 120.63688344 -38.04839516 119.24622917 C-36.79231169 109.99140421 -35.53058376 100.73747259 -34.23851585 91.4875946 C-33.7498929 87.98659927 -33.26509175 84.48507945 -32.78060913 80.98350906 C-32.55173336 79.33776878 -32.32089099 77.69230063 -32.08795166 76.04713058 C-31.76494054 73.76538712 -31.44858582 71.48280672 -31.13354492 69.19995117 C-30.95321213 67.91448898 -30.77287933 66.62902679 -30.58708191 65.30461121 C-29.85870741 58.2205664 -29.72755497 51.96182688 -33.203125 45.5703125 C-36.88949817 41.9991385 -40.68443557 41.24298404 -45.76318359 41.31591797 C-50.85388072 41.84668707 -55.66406876 43.56756485 -60.515625 45.1328125 C-61.66337402 45.49632812 -62.81112305 45.85984375 -63.99365234 46.234375 C-102.03842747 58.41209753 -130.07867743 77.63933797 -159.203125 104.5703125 C-166.00385173 110.81545793 -172.9121588 116.89956101 -180.203125 122.5703125 C-181.35071289 123.47704712 -181.35071289 123.47704712 -182.52148438 124.40209961 C-189.53853596 129.75637611 -196.77139711 133.46007271 -204.828125 137.0078125 C-207.32484532 138.13616672 -209.81662776 139.27525412 -212.30859375 140.4140625 C-214.09595947 141.22810547 -214.09595947 141.22810547 -215.91943359 142.05859375 C-248.47708951 157.04721869 -280.2544179 180.15997077 -301.203125 209.5703125 C-302.83977643 205.56850016 -301.43638334 202.44163841 -299.953125 198.6328125 C-299.6835498 197.93462402 -299.41397461 197.23643555 -299.13623047 196.51708984 C-284.18231697 159.18539207 -258.57735926 123.72871818 -231.5390625 94.15234375 C-230.24997524 92.72744963 -228.96745445 91.29617538 -227.71484375 89.83911133 C-222.86212609 84.19669587 -217.71696776 78.89167811 -212.453125 73.6328125 C-211.56496094 72.7454541 -210.67679688 71.8580957 -209.76171875 70.94384766 C-203.82813499 65.06564691 -197.80718897 59.68246312 -191.203125 54.5703125 C-189.34582096 52.99066059 -187.49185367 51.40707993 -185.640625 49.8203125 C-145.10346414 16.10881754 -52.51703621 -43.18549672 0 0 Z " fill="#000000" transform="translate(1556.203125,121.4296875)"/>
<path d="M0 0 C36.22042203 -1.23823847 79.53723302 7.43040267 108.93896484 30.08251953 C112.6347587 33.63136333 115.75378437 36.83778451 116.05921936 42.18962097 C116.05699875 43.0001442 116.05477814 43.81066742 116.05249023 44.64575195 C116.0524147 45.56647995 116.05233917 46.48720795 116.05226135 47.43583679 C116.04710007 48.42654678 116.04193878 49.41725677 116.03662109 50.43798828 C116.03449867 51.96314812 116.03449867 51.96314812 116.03233337 53.51911926 C116.02673191 56.76944917 116.01417917 60.01971041 116.00146484 63.27001953 C115.99645003 65.4724925 115.99188709 67.67496654 115.98779297 69.87744141 C115.97676201 75.27915758 115.96002247 80.68083365 115.93896484 86.08251953 C112.59373033 84.50332938 109.83276773 82.52921847 106.91601562 80.24951172 C71.84301363 52.89447583 32.28903053 39.87948317 -12.28759766 44.55126953 C-34.1351186 47.45389198 -54.62438458 56.81089885 -72.06103516 70.08251953 C-72.88216797 70.70642578 -73.70330078 71.33033203 -74.54931641 71.97314453 C-87.1432221 82.32668358 -95.29503268 97.8941635 -97.06103516 114.08251953 C-98.38569374 132.34388427 -92.86992156 148.74572898 -81.68603516 163.08251953 C-64.01069482 183.22698748 -35.43787849 194.32756098 -9.06103516 196.08251953 C34.07277793 197.87633047 74.82382834 189.83021702 107.74365234 160.47314453 C111.57239181 157.08251953 111.57239181 157.08251953 115.93896484 157.08251953 C116.9681545 167.59608767 117.06105242 178.10440574 116.85275269 188.6574707 C116.82696604 190.10347074 116.8096047 191.5496464 116.80081177 192.99584961 C116.7853683 195.06248813 116.73734034 197.12600979 116.68115234 199.19189453 C116.65907715 200.39813477 116.63700195 201.604375 116.61425781 202.84716797 C115.61636758 207.62809398 112.90890441 209.71260329 109.00805664 212.42529297 C106.88848106 213.57765133 104.76846235 214.72214418 102.62646484 215.83251953 C101.8061377 216.26008545 100.98581055 216.68765137 100.140625 217.12817383 C89.77313336 222.37375743 78.92115829 226.33364046 67.93896484 230.08251953 C67.15779297 230.34935547 66.37662109 230.61619141 65.57177734 230.89111328 C15.53271999 247.6009068 -37.96285656 241.63619589 -85.10400391 219.19970703 C-111.74650001 205.51240318 -130.97779664 181.68579762 -140.81103516 153.64501953 C-141.60727167 151.13437827 -142.33747048 148.6163211 -143.06103516 146.08251953 C-143.38201172 144.99455078 -143.70298828 143.90658203 -144.03369141 142.78564453 C-150.21125812 117.84551472 -146.52371933 91.75453474 -135.06103516 69.08251953 C-134.52607422 68.02419922 -133.99111328 66.96587891 -133.43994141 65.87548828 C-115.79287855 33.58601836 -83.28862024 18.49987157 -49.56884766 8.41845703 C-37.84943744 5.02672668 -26.16804066 2.57325212 -14.06103516 1.08251953 C-13.02333984 0.95103516 -11.98564453 0.81955078 -10.91650391 0.68408203 C-7.27912424 0.30762595 -3.65276984 0.14624925 0 0 Z " fill="#000000" transform="translate(764.06103515625,625.91748046875)"/>
<path d="M0 0 C663.3 0 1326.6 0 2010 0 C2010 3.96 2010 7.92 2010 12 C1346.37 12 682.74 12 -1 12 C-1 4 -1 4 0 0 Z " fill="#000000" transform="translate(1,914)"/>
<path d="M0 0 C5.18032065 8.14050388 4.12578588 17.6539487 4.0625 26.9375 C4.05798828 28.19369141 4.05347656 29.44988281 4.04882812 30.74414062 C4.03709681 33.82947663 4.020681 36.91471316 4 40 C-0.11135298 39.39225113 -3.18729015 38.02405245 -6.83203125 36.05078125 C-7.95246826 35.45241455 -9.07290527 34.85404785 -10.22729492 34.23754883 C-11.1056752 33.76498154 -11.1056752 33.76498154 -12.00180054 33.28286743 C-47.27290331 14.38081874 -79.66627216 11.97688651 -118.23022461 23.07958984 C-126.35829338 25.59088543 -132.02976334 28.40842908 -136.2109375 36.03125 C-137.49298213 39.23001483 -137.2474089 40.78299809 -136 44 C-132.51704956 50.23437211 -128.90617919 55.54038894 -121.97753906 58.12939453 C-110.99075714 60.91715485 -99.91711711 62.95054325 -88.75 64.875 C-86.75900909 65.22376355 -84.76812498 65.57313728 -82.77734375 65.9230957 C-73.52958923 67.54414398 -64.27612511 69.12926245 -55.015625 70.67578125 C2.57015733 80.29763584 2.57015733 80.29763584 14.9296875 96.53515625 C21.10188983 105.63979496 23.56580781 114.35745659 23.4375 125.3125 C23.42614014 126.68607666 23.42614014 126.68607666 23.41455078 128.08740234 C23.07073223 142.31446326 17.73297304 155.6893118 7.96875 166.16015625 C-10.99179381 183.87923588 -43.7076463 191.04762145 -69.05859375 191.203125 C-69.80601334 191.20882507 -70.55343292 191.21452515 -71.32350159 191.22039795 C-72.89916601 191.2297838 -74.4748495 191.23635616 -76.05053711 191.24023438 C-78.40060082 191.24984904 -80.74975341 191.28089534 -83.09960938 191.3125 C-98.9027803 191.42563631 -113.496851 188.38644541 -128.75 184.375 C-129.39578003 184.20625366 -130.04156006 184.03750732 -130.70690918 183.86364746 C-140.29365872 181.35201139 -149.83851154 178.69301241 -159.32629395 175.82940674 C-161.2149021 175.26057124 -163.10694261 174.70317176 -164.99902344 174.14599609 C-166.13887695 173.79359863 -167.27873047 173.44120117 -168.453125 173.078125 C-169.45504883 172.77293945 -170.45697266 172.46775391 -171.48925781 172.15332031 C-174.37868814 170.82604796 -175.45132555 169.75467425 -177 167 C-179.3001997 158.23785932 -178.11073487 147.88490915 -178.0625 138.875 C-178.05747437 137.23437637 -178.05291335 135.59375124 -178.04882812 133.953125 C-178.03790805 129.96871258 -178.02070218 125.9843731 -178 122 C-175.00925088 123.14359697 -172.24725685 124.33572647 -169.53125 126.03125 C-136.02791041 146.55619715 -94.28291767 163.32868701 -54.421875 153.97265625 C-42.23321335 150.50807092 -29.50505348 145.75724332 -22 135 C-20.07590062 131.15180123 -20.39126381 126.83282527 -21.71875 122.8359375 C-23.77790067 118.40212113 -25.8949282 115.80261276 -30 113 C-35.1711906 111.14085025 -40.63240043 110.15676076 -46 109 C-47.51062012 108.66331299 -47.51062012 108.66331299 -49.05175781 108.31982422 C-66.27678732 104.50931532 -83.45187492 101.82280686 -100.98461914 99.91235352 C-126.13289597 97.06690814 -157.9497715 89.65010724 -174.65234375 69.0859375 C-181.94058634 57.8050055 -183.43150305 44.91133892 -181.5390625 31.80859375 C-178.38173146 17.563459 -170.71933705 7.25538144 -158.625 -0.75 C-140.41312615 -11.65697286 -121.92496341 -13.68305893 -101.16455078 -15.67529297 C-97.23660479 -16.07833017 -93.34538168 -16.6235978 -89.4375 -17.1875 C-61.51084046 -20.68574398 -23.78031583 -16.3810449 0 0 Z " fill="#ED212B" transform="translate(1564,670)"/>
<path d="M0 0 C4.23470341 3.87302056 6.99282275 7.93787136 9.875 12.875 C14.19561399 20.1091687 18.68623362 27.20748988 23.3125 34.25 C28.34760237 41.92375745 33.33424178 49.62419192 38.25 57.375 C42.30529981 63.7685768 46.37627718 70.15031773 50.5 76.5 C55.3174206 83.91897057 60.0661401 91.38059639 64.80859375 98.84765625 C68.34724104 104.41502475 71.90745766 109.96727159 75.5 115.5 C80.31735554 122.91901342 85.06613956 130.38059555 89.80859375 137.84765625 C93.34724104 143.41502475 96.90745766 148.96727159 100.5 154.5 C104.70496012 160.97588814 108.86030175 167.48221293 113 174 C117.31090438 180.78544341 121.63396267 187.56237151 126 194.3125 C126.44706299 195.0041626 126.89412598 195.6958252 127.35473633 196.40844727 C130.19747167 200.79442792 133.09193923 205.1407914 136.07421875 209.43359375 C137 211 137 211 137 213 C135.90300781 213.06058594 134.80601562 213.12117187 133.67578125 213.18359375 C132.22134346 213.26804498 130.76691695 213.35269066 129.3125 213.4375 C128.59126953 213.47681641 127.87003906 213.51613281 127.12695312 213.55664062 C123.31914084 213.78267514 119.74134839 214.23174315 116 215 C105.55299139 215.7587213 97.96965024 214.83745788 89.875 207.9375 C82.30967581 200.63946069 77.57225581 192.29473822 72.625 183.125 C63.22430579 165.32383686 63.22430579 165.32383686 47.02392578 154.39453125 C38.61072998 151.96640456 29.7257707 152.64350943 21.0546875 152.75 C19.11516815 152.76537218 17.17564353 152.78009092 15.2361145 152.79418945 C11.18635625 152.82756729 7.13694574 152.87300158 3.08740234 152.92626953 C-2.08836344 152.99278744 -7.26361752 153.0226751 -12.43974495 153.04275513 C-16.43952926 153.06342998 -20.43883267 153.10680801 -24.43835068 153.15661621 C-26.34635624 153.17706285 -28.25446155 153.18978685 -30.16257095 153.19445801 C-32.83338613 153.20375436 -35.50200883 153.24451917 -38.17236328 153.29296875 C-38.95075562 153.28905624 -39.72914795 153.28514374 -40.53112793 153.28111267 C-47.20518598 153.45881456 -52.22562307 156.07446942 -56.81933594 160.91845703 C-57.39603027 161.82893799 -57.39603027 161.82893799 -57.984375 162.7578125 C-58.6654834 163.80557861 -58.6654834 163.80557861 -59.36035156 164.87451172 C-59.81893555 165.61717285 -60.27751953 166.35983398 -60.75 167.125 C-61.50361816 168.29893311 -61.50361816 168.29893311 -62.27246094 169.49658203 C-63.8655686 171.98723606 -65.43389424 174.49229731 -67 177 C-68.05100307 178.66214189 -69.10307925 180.32360575 -70.15625 181.984375 C-72.1888282 185.19545339 -74.21731132 188.40905961 -76.2421875 191.625 C-76.71108398 192.36878906 -77.17998047 193.11257813 -77.66308594 193.87890625 C-78.5112327 195.22454158 -79.35836093 196.57081985 -80.20410156 197.91796875 C-81.25058974 199.57696839 -82.31227147 201.2263565 -83.375 202.875 C-83.93960937 203.75929688 -84.50421875 204.64359375 -85.0859375 205.5546875 C-90.52061588 212.49776641 -90.52061588 212.49776641 -95.15921021 213.43737793 C-97.71162666 213.57721482 -100.21827152 213.56256017 -102.7734375 213.48828125 C-104.1590538 213.47766914 -104.1590538 213.47766914 -105.57266235 213.46684265 C-108.50761732 213.43897277 -111.44062693 213.37624888 -114.375 213.3125 C-116.37106609 213.28740752 -118.36716225 213.26459602 -120.36328125 213.24414062 C-125.24293096 213.18917039 -130.12113627 213.10294966 -135 213 C-133.72842777 209.59968295 -132.26887591 206.62818991 -130.3046875 203.578125 C-129.49064453 202.30678711 -129.49064453 202.30678711 -128.66015625 201.00976562 C-128.07105469 200.09904297 -127.48195313 199.18832031 -126.875 198.25 C-125.94880859 196.80657227 -125.94880859 196.80657227 -125.00390625 195.33398438 C-123.68366883 193.27690101 -122.36167514 191.22094395 -121.03808594 189.16601562 C-118.35347755 184.99567524 -115.68080086 180.81775479 -113.00830078 176.63964844 C-111.66087653 174.53317192 -110.31288763 172.42705648 -108.96435547 170.32128906 C-104.63124078 163.55490761 -100.31056103 156.78076838 -96 150 C-90.33834493 141.0938805 -84.65285363 132.20321016 -78.9609375 123.31640625 C-74.62933556 116.55141404 -70.30949606 109.77909311 -66 103 C-60.33834493 94.0938805 -54.65285363 85.20321016 -48.9609375 76.31640625 C-44.62933528 69.5514136 -40.30961507 62.77901774 -36 56 C-24.09150795 37.27377289 -12.13043465 18.58339716 0 0 Z M0 72 C-1.37192165 73.70682593 -1.37192165 73.70682593 -2.73046875 75.96875 C-3.27944824 76.83927002 -3.82842773 77.70979004 -4.39404297 78.60668945 C-4.98588379 79.56148193 -5.57772461 80.51627441 -6.1875 81.5 C-6.7973877 82.47219482 -7.40727539 83.44438965 -8.03564453 84.44604492 C-9.34275346 86.53160615 -10.6466719 88.61916965 -11.94775391 90.70849609 C-14.04263243 94.06837621 -16.15067682 97.41980126 -18.26171875 100.76953125 C-19.6332025 102.95027561 -21.00430629 105.13125898 -22.375 107.3125 C-23.0352417 108.36179687 -23.6954834 109.41109375 -24.37573242 110.4921875 C-25.28415894 111.94431641 -25.28415894 111.94431641 -26.2109375 113.42578125 C-26.75024902 114.28598877 -27.28956055 115.14619629 -27.84521484 116.0324707 C-29.08436301 117.76350796 -29.08436301 117.76350796 -29 119 C-8.87 119 11.26 119 32 119 C26.38908735 109.33015821 26.38908735 109.33015821 20.375 100 C17.37036953 95.56876621 14.41843009 91.11162355 11.5390625 86.59765625 C10.95205566 85.68048828 10.36504883 84.76332031 9.76025391 83.81835938 C8.59814838 81.99896309 7.44145238 80.17609881 6.29052734 78.34960938 C5.76152832 77.52396484 5.2325293 76.69832031 4.6875 75.84765625 C4.21699219 75.10523682 3.74648437 74.36281738 3.26171875 73.59790039 C2.84535156 73.07059326 2.42898438 72.54328613 2 72 C1.34 72 0.68 72 0 72 Z " fill="#ED212B" transform="translate(1871,644)"/>
<path d="M0 0 C2.95186798 2.63987058 5.81206118 5.36954427 8.66015625 8.12109375 C9.5934375 9.0028125 10.52671875 9.88453125 11.48828125 10.79296875 C35.89822849 34.38470547 52.66368936 66.35989588 56.66015625 100.12109375 C53.40988397 98.70758467 50.74630922 96.74173426 47.94287109 94.59301758 C17.45649101 71.30671535 -16.83284075 60.07680002 -55.30859375 64.62890625 C-64.05866848 65.91859758 -72.50720385 68.48280133 -80.92578125 71.1328125 C-84.33984375 72.12109375 -84.33984375 72.12109375 -87.33984375 72.12109375 C-86.36293738 65.24656743 -82.22069506 60.65382117 -77.109375 56.16015625 C-64.43586384 46.69120338 -45.12825549 41.12109375 -29.33984375 41.12109375 C-52.27099102 14.1769957 -82.07576389 -5.05749269 -116.02734375 -14.87890625 C-116.7330249 -15.08684814 -117.43870605 -15.29479004 -118.16577148 -15.5090332 C-124.5581251 -17.23794486 -130.70575112 -17.98799789 -136.90234375 -15.37890625 C-137.70671875 -14.88390625 -138.51109375 -14.38890625 -139.33984375 -13.87890625 C-139.59691453 -8.60895534 -138.81760828 -4.44609547 -136.96484375 0.43359375 C-136.70082764 1.15740234 -136.43681152 1.88121094 -136.16479492 2.62695312 C-134.53369117 7.05731537 -132.82319804 11.45572618 -131.1015625 15.8515625 C-86.69441108 129.32247622 -86.69441108 129.32247622 -103.46484375 173.30859375 C-110.37209609 188.55433089 -121.48123999 198.99045421 -134.64746094 208.85205078 C-143.04306794 215.1475449 -151.251252 221.64204369 -159.37353516 228.28417969 C-164.69618199 232.62630504 -170.10488467 236.83953954 -175.5703125 241 C-177.43316897 242.42670107 -179.24928112 243.91635358 -181.015625 245.4609375 C-181.78261719 246.00878906 -182.54960938 246.55664062 -183.33984375 247.12109375 C-184.32984375 246.79109375 -185.31984375 246.46109375 -186.33984375 246.12109375 C-184.85570645 242.63454899 -182.87770323 240.47918303 -180.15234375 237.87109375 C-177.34997681 235.18160674 -174.71800744 232.43027336 -172.19140625 229.484375 C-167.67040558 224.26891448 -162.79127593 219.42667761 -157.90234375 214.55859375 C-156.54786133 213.19831055 -156.54786133 213.19831055 -155.16601562 211.81054688 C-150.05200131 206.7039388 -144.82881901 201.81984931 -139.33984375 197.12109375 C-127.54207224 186.5348779 -121.11172279 173.26869831 -120.1015625 157.37109375 C-119.08241268 118.86276905 -136.55022915 82.45075689 -151.46484375 47.87109375 C-177.96031273 -13.56508375 -177.96031273 -13.56508375 -170.7890625 -34.7265625 C-166.60443807 -43.82896659 -159.54900581 -49.37942467 -150.33984375 -52.87890625 C-100.14746945 -70.18662153 -36.07333246 -31.52197327 0 0 Z " fill="#000000" transform="translate(1816.33984375,69.87890625)"/>
<path d="M0 0 C2.51574457 2.2012765 4.9116704 4.47485783 7.28125 6.83203125 C8.21904297 7.71761719 8.21904297 7.71761719 9.17578125 8.62109375 C27.63693768 27.54065361 27.83276273 55.76487447 27.54296875 80.3828125 C27.13977638 103.72317054 21.88644808 126.58428649 17.60351562 149.45037842 C12.8626026 174.76487858 9.34466234 199.87102833 7.03125 225.51953125 C6.94176086 226.49639893 6.85227173 227.4732666 6.7600708 228.47973633 C5.87181698 238.3062904 5.12391565 248.10607617 5.046875 257.9765625 C5.03670349 258.7157341 5.02653198 259.4549057 5.01605225 260.21647644 C5.03097497 263.91396305 5.23186024 266.69345887 7.28125 269.83203125 C19.62376701 270.60908576 31.09033092 258.58149454 40.29492188 251.37744141 C43.01345631 249.26235746 45.76869781 247.20182871 48.53125 245.14453125 C52.44984743 242.21483763 56.34362772 239.2565013 60.21875 236.26953125 C61.90524038 234.97061133 63.59196093 233.67199107 65.27880859 232.37353516 C66.72996133 231.25642002 68.18076234 230.13884794 69.63134766 229.02099609 C80.00103983 221.03925837 90.42965034 213.19802632 101.16796875 205.71875 C103.86361987 203.83857932 106.53093315 201.9275277 109.17578125 199.9765625 C191.53274421 139.28093686 191.53274421 139.28093686 242.15625 139.51953125 C243.38988281 139.5244458 244.62351562 139.52936035 245.89453125 139.53442383 C268.44702625 139.82527942 287.3001845 147.7173448 303.28125 163.83203125 C327.70222807 189.57924221 332.12288175 229.72628679 331.46484375 263.59375 C328.78410736 351.0257177 301.92179883 441.94650753 247.28125 510.83203125 C246.67732422 511.59435059 246.07339844 512.35666992 245.45117188 513.14208984 C242.86013588 516.40549244 240.25779415 519.65911741 237.63671875 522.8984375 C235.8044102 525.18046689 234.01555349 527.47545275 232.28125 529.83203125 C230.96125 529.50203125 229.64125 529.17203125 228.28125 528.83203125 C228.67286544 523.73147899 231.4894253 520.88472659 234.71875 517.20703125 C288.80607886 453.01522338 312.00008282 367.94097027 319.28125 285.83203125 C319.38711426 284.7325415 319.38711426 284.7325415 319.49511719 283.61083984 C322.9988305 247.09992253 321.53374043 205.39836835 298.26953125 175.22265625 C286.50279251 161.07482892 269.75005357 151.37580417 251.24291992 149.52880859 C248.18642536 149.39618748 245.15291213 149.36401172 242.09375 149.39453125 C240.45865479 149.40697876 240.45865479 149.40697876 238.79052734 149.41967773 C229.4779244 149.61268861 221.11411787 150.94066674 212.28125 153.83203125 C211.55873047 154.06277344 210.83621094 154.29351562 210.09179688 154.53125 C170.06000705 167.58734711 135.54495557 192.54516344 102.94189453 218.51416016 C101.25770845 219.85071359 99.56586989 221.17690646 97.87109375 222.5 C92.34017398 226.81963818 86.84527919 231.17436962 81.41674805 235.62231445 C74.1108857 241.6080647 66.67550042 247.36721168 59.0859375 252.98828125 C56.6643763 254.78527689 54.27420031 256.61137641 51.9140625 258.48828125 C38.3808147 269.23816784 20.24193642 283.35509746 2.28125 281.83203125 C-1.49764029 280.46519859 -2.4152605 279.39471094 -4.32275391 275.8581543 C-6.24947472 271.13312257 -6.14880548 266.51700707 -6.1171875 261.4765625 C-6.12146255 260.47482498 -6.12573761 259.47308746 -6.13014221 258.44099426 C-6.13666401 255.1751776 -6.11774302 251.91025843 -6.09375 248.64453125 C-6.08876495 247.52157654 -6.08377991 246.39862183 -6.0786438 245.24163818 C-5.90071815 211.02212569 -1.87353566 178.2283345 3.82763672 144.52612305 C4.97942682 137.68543211 6.09464718 130.83869225 7.20956421 123.99191284 C7.57779991 121.74198654 7.95196402 119.49312036 8.32739258 117.24438477 C10.51807081 104.01403902 12.68385782 90.64899732 12.59375 77.20703125 C12.58956055 76.29953125 12.58537109 75.39203125 12.58105469 74.45703125 C12.2432805 53.47191161 10.07264729 29.719187 -4.79296875 13.67578125 C-21.6706204 -2.48294407 -48.61658624 -2.92316687 -70.58984375 -2.45703125 C-117.32588468 -0.70562553 -157.99362943 23.69001398 -194.71875 50.83203125 C-195.28223145 51.24533691 -195.84571289 51.65864258 -196.42626953 52.08447266 C-214.51966814 65.37307473 -231.98332219 79.80339671 -247.71875 95.83203125 C-250.37270824 98.49928144 -253.04100722 101.15000032 -255.734375 103.77734375 C-261.68217618 109.60629861 -267.30341598 115.4913168 -272.48046875 122.03125 C-274.51687983 124.57942931 -276.61453728 127.04951842 -278.74926758 129.5144043 C-284.89566481 136.63560755 -290.40100347 144.07822207 -295.71875 151.83203125 C-296.4005835 152.81502197 -296.4005835 152.81502197 -297.09619141 153.81787109 C-320.62559086 187.82451257 -336.40433321 223.1450121 -345.23999023 263.44750977 C-347.41446136 273.13871903 -350.47303733 281.87820156 -354.71875 290.83203125 C-355.53468693 292.68468805 -356.34783035 294.53858191 -357.15625 296.39453125 C-357.671875 297.52890625 -358.1875 298.66328125 -358.71875 299.83203125 C-359.37875 299.83203125 -360.03875 299.83203125 -360.71875 299.83203125 C-368.42788277 233.61608729 -330.99522442 172.07390274 -291.71875 121.83203125 C-287.85042582 117.04950198 -283.81793953 112.41708388 -279.71875 107.83203125 C-278.91695312 106.93097656 -278.11515625 106.02992188 -277.2890625 105.1015625 C-275.81673282 103.45856485 -274.33910302 101.82029678 -272.85546875 100.1875 C-271.41070867 98.59483029 -269.97603381 96.99296269 -268.55078125 95.3828125 C-261.1794176 87.07208923 -253.50049599 79.01428288 -245.03125 71.80859375 C-243.19691646 70.24073434 -241.39163617 68.6518847 -239.59375 67.04296875 C-216.25793517 46.28312239 -190.14576093 28.70991468 -162.71875 13.83203125 C-161.80270996 13.33219727 -160.88666992 12.83236328 -159.94287109 12.31738281 C-114.74507986 -12.21433867 -46.17033789 -36.81686426 0 0 Z " fill="#000000" transform="translate(1572.71875,102.16796875)"/>
<path d="M0 0 C12.54 0 25.08 0 38 0 C38 65.01 38 130.02 38 197 C25.46 197 12.92 197 0 197 C0 131.99 0 66.98 0 0 Z " fill="#ED212B" transform="translate(1650,658)"/>
<path d="M0 0 C7.83401326 7.59000301 13.3523334 17.33367816 16.5625 27.75 C16.0675 28.74 16.0675 28.74 15.5625 29.75 C13.70483398 30.34423828 13.70483398 30.34423828 11.30859375 30.8203125 C10.45458984 30.99433594 9.60058594 31.16835938 8.72070312 31.34765625 C7.82287109 31.52167969 6.92503906 31.69570313 6 31.875 C5.09830078 32.05675781 4.19660156 32.23851562 3.26757812 32.42578125 C1.03396748 32.87486699 -1.20093808 33.31589404 -3.4375 33.75 C-3.98277344 32.615625 -4.52804687 31.48125 -5.08984375 30.3125 C-10.31120082 19.75627809 -15.11566832 11.33948391 -26.25 6.25 C-38.03146714 2.53303009 -53.45076252 3.05614335 -64.4375 8.75 C-71.98860641 13.16894338 -77.32841251 18.01210797 -81.4375 25.75 C-82.00210938 26.77867187 -82.00210938 26.77867187 -82.578125 27.828125 C-91.10378117 45.00668594 -91.39111956 69.70933402 -85.4375 87.75 C-80.83088115 99.801398 -75.07667248 108.51140166 -63.375 114.625 C-51.82105165 119.39869014 -38.39404133 120.26137132 -26.6875 115.671875 C-15.93500594 110.61564268 -9.48653723 103.49330276 -5.10546875 92.3671875 C-4.1494053 89.5091321 -3.25263755 86.65107961 -2.4375 83.75 C2.40988787 82.22981327 6.14500839 83.38136291 10.875 84.6875 C11.61556641 84.88279297 12.35613281 85.07808594 13.11914062 85.27929688 C14.93616113 85.7599281 16.74970614 86.25366514 18.5625 86.75 C17.19513201 100.97062706 9.09801889 114.41631068 -1.4375 123.75 C-17.26090485 135.83826636 -35.21619092 138.60693939 -54.65185547 136.51123047 C-70.31125867 134.26146532 -83.33501218 128.29054179 -93.75 116.0625 C-100.9477407 106.39567985 -105.52837605 95.38649579 -108.4375 83.75 C-108.66308594 82.86828125 -108.88867188 81.9865625 -109.12109375 81.078125 C-113.93262491 58.11550734 -110.61511186 33.0124486 -98.08984375 13.125 C-87.11797513 -2.64544001 -71.22316684 -10.58373221 -52.625 -13.9375 C-33.44039463 -15.77017572 -15.08188259 -12.71252339 0 0 Z " fill="#000000" transform="translate(1088.4375,985.25)"/>
<path d="M0 0 C6.27 0 12.54 0 19 0 C19 48.18 19 96.36 19 146 C13.06 146 7.12 146 1 146 C0.67 142.7 0.34 139.4 0 136 C-0.969375 137.0725 -1.93875 138.145 -2.9375 139.25 C-9.61466538 145.94070933 -17.73576425 148.0924744 -27 148.3125 C-39.20252867 148.16100134 -48.9502699 144.1505582 -58 136 C-70.22666956 123.35651216 -73.5089567 106.82636153 -73.34912109 89.80688477 C-72.9429182 74.45269156 -68.88270912 59.04258369 -57.9296875 47.67578125 C-48.89418925 39.82916435 -37.79434362 36.24278247 -25.85546875 36.65625 C-15.22353403 37.93615459 -9.65919311 41.26507203 -1 48 C-0.67 32.16 -0.34 16.32 0 0 Z M-47.53125 63.625 C-54.90952303 75.55582447 -55.63725977 91.87536289 -53.25 105.375 C-51.04506684 114.55968709 -46.97292358 122.75640337 -39.09765625 128.3515625 C-32.76835775 132.07153075 -27.21285808 132.82135949 -20 132 C-12.10395641 129.48454611 -6.93831695 125.04962416 -2.8203125 117.97265625 C4.28409189 103.63420506 2.88587282 87.02641949 -1 72 C-3.80565719 64.44385508 -8.93421186 58.86415788 -15.94140625 54.90234375 C-27.76933893 49.76495885 -39.62848969 53.78382679 -47.53125 63.625 Z " fill="#000000" transform="translate(418,974)"/>
<path d="M0 0 C10.52689049 9.47420144 16.23711167 22.66624984 17.18017578 36.67675781 C18.06249488 55.82213356 16.14383702 72.85665619 3.75 88.3125 C-4.02468468 96.6134188 -14.94066588 101.10896803 -26.14453125 102.34765625 C-36.82249331 102.66292342 -44.97411537 100.06199162 -53 93 C-53.66 92.34 -54.32 91.68 -55 91 C-55.33 107.17 -55.66 123.34 -56 140 C-62.27 140 -68.54 140 -75 140 C-75 91.82 -75 43.64 -75 -6 C-69.39 -6 -63.78 -6 -58 -6 C-57.67 -2.37 -57.34 1.26 -57 5 C-56.38125 4.13375 -55.7625 3.2675 -55.125 2.375 C-41.5287883 -13.83291339 -15.61209489 -12.02553255 0 0 Z M-50 17 C-58.57350558 30.31806691 -59.65587953 46.67179121 -56.81640625 61.94140625 C-54.00073067 72.49008558 -49.08987164 79.41772256 -39.8125 84.875 C-33.0932726 86.85772284 -26.01486491 87.34175819 -19.5625 84.25 C-18.35704505 83.5292125 -17.16694081 82.78160438 -16 82 C-15.13375 81.46375 -14.2675 80.9275 -13.375 80.375 C-3.87345 70.87345 -1.74136494 58.92970479 -1.625 46 C-1.72407716 33.74404141 -3.41028375 22.96131679 -12.078125 13.8046875 C-17.57021086 8.59281011 -21.81836081 6.38014902 -29.4375 5.6875 C-38.20749993 6.45679824 -44.18723727 10.43290928 -50 17 Z " fill="#000000" transform="translate(1382,1020)"/>
<path d="M0 0 C5.94 0 11.88 0 18 0 C18 48.18 18 96.36 18 146 C12.39 146 6.78 146 1 146 C0.67 142.7 0.34 139.4 0 136 C-0.49886719 136.53109375 -0.99773437 137.0621875 -1.51171875 137.609375 C-9.10407591 145.07905493 -17.39047072 148.05151263 -28 148.5 C-41.18896221 147.97731986 -51.72615483 142.67770773 -60.75 133.3125 C-70.64971484 121.7915775 -73.57004839 107.58700381 -73.4375 92.75 C-73.42992676 91.56212891 -73.42235352 90.37425781 -73.41455078 89.15039062 C-73.13256696 74.09204296 -69.7699252 60.11760448 -59.375 48.6875 C-50.08657456 40.03843081 -38.22676019 36.45836133 -25.76171875 36.75390625 C-15.85857562 37.63636455 -7.96805083 42.03194917 -1 49 C-0.67 32.83 -0.34 16.66 0 0 Z M-46.4296875 61.80859375 C-55.49040287 74.4530249 -55.51438637 91.60360084 -53.5390625 106.46875 C-51.2962318 115.65116276 -46.79540343 123.3791027 -39.02734375 128.84375 C-32.77569012 132.40924031 -27.08760662 132.7455794 -20 132 C-12.43175891 129.70471377 -7.62226249 124.18408166 -3 118 C0.96108032 110.10229048 1.38443418 102.04846914 1.4375 93.375 C1.44749023 92.42189941 1.45748047 91.46879883 1.46777344 90.48681641 C1.34698427 80.45613908 -0.80457002 70.12289708 -7 62 C-12.9429927 56.25474089 -18.49441117 53.04730297 -26.8125 52.625 C-34.73009185 52.82710069 -41.06149892 56.02842791 -46.4296875 61.80859375 Z " fill="#000000" transform="translate(767,974)"/>
<path d="M0 0 C7.90938997 7.18889898 10.2426404 14.53319155 11 25 C11.15448842 29.6117214 11.18405859 34.2219226 11.2109375 38.8359375 C11.23182435 40.84595407 11.25272887 42.85597063 11.27463722 44.86597633 C11.32736879 49.77809939 11.37196061 54.69021948 11.40136719 59.60253906 C11.41837168 62.37095795 11.44316034 65.13910554 11.47622681 67.90737915 C11.50688969 70.49953241 11.52654486 73.09184777 11.53329468 75.68417358 C11.62600879 82.35175524 12.26034088 88.22698786 14.2628479 94.60122681 C15.00700294 97.02278833 15.50317443 99.51587213 16 102 C9.73 102 3.46 102 -3 102 C-4.85375622 98.29248755 -6.53447054 94.8329232 -8 91 C-8.68964844 91.45890625 -9.37929687 91.9178125 -10.08984375 92.390625 C-24.69036204 101.9240224 -38.42931885 106.33130898 -56.125 103.5 C-65.21589926 101.27778018 -72.82098483 96.97476673 -78 89 C-80.67680416 83.75499709 -81.55236262 79.55078748 -81.5 73.6875 C-81.49427979 72.94129395 -81.48855957 72.19508789 -81.48266602 71.42626953 C-81.21569977 63.14042829 -78.33887004 57.36233144 -72.875 51.1875 C-61.00291438 40.33666905 -42.56344361 39.68120404 -27.41381836 37.44506836 C-20.8978652 36.47986918 -14.44379928 35.3685385 -8 34 C-8.8552702 23.64146988 -8.8552702 23.64146988 -14 15 C-22.93085741 9.34011506 -33.61211399 8.36604421 -43.87890625 10.63671875 C-45.969035 11.34261067 -47.97795739 12.12104904 -50 13 C-50.99 13.33 -51.98 13.66 -53 14 C-54.10812123 15.7549174 -54.10812123 15.7549174 -55 18 C-55.42539063 18.92296875 -55.85078125 19.8459375 -56.2890625 20.796875 C-56.72992187 21.77140625 -57.17078125 22.7459375 -57.625 23.75 C-58.40875 25.4825 -59.1925 27.215 -60 29 C-65.94 28.34 -71.88 27.68 -78 27 C-76.88796872 18.10374977 -74.58819341 9.83354466 -67.75 3.5625 C-66.53156951 2.66387448 -65.27906811 1.80999103 -64 1 C-62.95779297 0.32710937 -62.95779297 0.32710937 -61.89453125 -0.359375 C-45.52136736 -9.68412496 -15.53575606 -11.46023261 0 0 Z M-11.5703125 49.734375 C-20.56507221 52.30430635 -29.53137064 54.06689453 -38.78955078 55.42871094 C-46.11797388 56.58536414 -53.24110454 58.10315977 -58.5 63.625 C-61.51578479 68.39999258 -61.60096362 72.41962351 -61 78 C-58.4754478 83.45303275 -55.23185691 85.47749756 -50 88 C-41.7767037 90.55497478 -32.7939377 89.34925271 -25 86 C-17.7138927 82.16520669 -12.97730945 77.64667721 -9.75 70.0625 C-8.02401248 63.01471761 -7.86691271 56.21628871 -8 49 C-9.28527357 48.95421315 -9.28527357 48.95421315 -11.5703125 49.734375 Z " fill="#000000" transform="translate(1675,1018)"/>
<path d="M0 0 C5.85180053 4.82456139 8.50786822 11.30960475 9.29058838 18.76953125 C9.42385106 21.88050107 9.46719617 24.97995366 9.4765625 28.09375 C9.49214203 29.23928345 9.50772156 30.38481689 9.52377319 31.56506348 C9.57100952 35.21003501 9.59890779 38.85482137 9.625 42.5 C8.75246792 70.10812786 8.75246792 70.10812786 14.16015625 96.77734375 C15 99 15 99 15 101 C8.4 101 1.8 101 -5 101 C-6.32 97.37 -7.64 93.74 -9 90 C-9.68964844 90.45890625 -10.37929688 90.9178125 -11.08984375 91.390625 C-25.63740954 100.88944711 -39.51695416 105.45262952 -57.16015625 102.46484375 C-66.66248994 100.07292207 -73.20548246 96.01624965 -79 88 C-83.26011166 80.44374356 -84.07517991 72.47274142 -81.875 64.125 C-79.14846899 55.8191787 -74.96426093 50.06243283 -67.63671875 45.2890625 C-58.09242176 40.62296175 -47.82001219 39.51689973 -37.4375 37.9375 C-34.94061956 37.55315988 -32.44414443 37.16651305 -29.94825745 36.77577209 C-28.40505036 36.53461797 -26.86124712 36.2972346 -25.3167572 36.06443787 C-20.45628253 35.3106019 -15.75718539 34.25256125 -11 33 C-9.42809944 26.66716321 -10.53533588 20.92932824 -13.4375 15.125 C-20.65101444 9.14306119 -29.2383541 8.33389916 -38.3359375 8.62109375 C-44.33417813 9.24138089 -50.11781224 10.35240892 -54.6796875 14.54296875 C-57.87157398 18.66975689 -59.14611454 23.05630543 -61 28 C-67.27 27.34 -73.54 26.68 -80 26 C-77.51782577 14.83021594 -74.16209289 5.84398038 -64.44140625 -0.73046875 C-45.47912604 -11.15071771 -18.33864495 -11.7910695 0 0 Z M-20.875 50.75 C-26.11520504 51.959112 -31.35028029 53.08803826 -36.6484375 54.015625 C-37.58187988 54.18094727 -38.51532227 54.34626953 -39.47705078 54.51660156 C-41.28851819 54.83238827 -43.10199174 55.13693003 -44.91748047 55.42871094 C-51.34157522 56.5593912 -55.56485427 58.63066902 -60.3125 63.25 C-62.47952256 66.78144417 -63.31691238 69.90277569 -63 74 C-61.37664754 79.2615718 -58.76206078 83.12061441 -54 86 C-45.07198944 89.57120422 -35.80789504 88.73813405 -26.93359375 85.44921875 C-19.40519154 81.73012791 -13.27064757 76.02700287 -10.5390625 67.97265625 C-9.40177199 61.701076 -9.71670248 55.34271666 -10 49 C-13.77606997 49 -17.22006977 49.89702615 -20.875 50.75 Z " fill="#000000" transform="translate(664,1019)"/>
<path d="M0 0 C10.54510867 8.70278519 15.02744651 20.08645128 17.66015625 33.25 C17.66015625 39.19 17.66015625 45.13 17.66015625 51.25 C-8.07984375 51.25 -33.81984375 51.25 -60.33984375 51.25 C-56.31560446 69.19774937 -56.31560446 69.19774937 -44.08984375 80.8125 C-36.93260869 84.73564282 -30.41646807 85.00151478 -22.33984375 84.25 C-14.39325643 81.89036089 -9.09724809 77.16162648 -5.08984375 70.0234375 C-4.12314166 68.12359937 -3.22448624 66.18940854 -2.33984375 64.25 C0.2438187 64.39120016 2.8269851 64.53778333 5.41015625 64.6875 C6.13976562 64.72681641 6.869375 64.76613281 7.62109375 64.80664062 C11.08745355 65.01147098 14.31348651 65.3352002 17.66015625 66.25 C14.78674601 78.86563925 8.53999274 88.16973717 -2.33984375 95.25 C-15.70126168 102.88835325 -32.69138177 103.17463716 -47.30859375 99.28515625 C-59.14201401 95.24410423 -67.99529213 87.99813096 -74.01953125 77.01953125 C-78.85720387 66.87186887 -79.7062512 57.75098484 -79.77734375 46.625 C-79.78749512 45.49328369 -79.79764648 44.36156738 -79.80810547 43.19555664 C-79.65904861 28.75068769 -75.83361336 13.74376961 -65.33984375 3.25 C-46.79944448 -12.60744733 -19.89177031 -14.87731736 0 0 Z M-53.33984375 17.25 C-57.37728113 23.39131294 -58.40236163 27.75014308 -59.33984375 35.25 C-40.52984375 35.25 -21.71984375 35.25 -2.33984375 35.25 C-3.37571926 24.89124492 -4.82530805 18.73243545 -12.3046875 11.79296875 C-25.69291538 1.64258485 -42.70323608 5.08394548 -53.33984375 17.25 Z " fill="#000000" transform="translate(886.33984375,1020.75)"/>
<path d="M0 0 C32.67 0 65.34 0 99 0 C99 5.94 99 11.88 99 18 C72.93 18 46.86 18 20 18 C20 32.52 20 47.04 20 62 C42.44 62 64.88 62 88 62 C88 67.94 88 73.88 88 80 C65.56 80 43.12 80 20 80 C20 101.78 20 123.56 20 146 C13.4 146 6.8 146 0 146 C0 97.82 0 49.64 0 0 Z " fill="#000000" transform="translate(6,974)"/>
<path d="M0 0 C10.01551273 9.49567643 15.21821206 22.15534749 15.65625 35.8828125 C15.66411418 38.2604165 15.65609599 40.63812201 15.6328125 43.015625 C15.64441406 44.19253906 15.65601563 45.36945313 15.66796875 46.58203125 C15.62004097 61.10414975 12.68059157 74.60216066 2.5078125 85.453125 C-9.13373862 96.27422395 -22.31480634 99.49245794 -37.85546875 99.35546875 C-50.05896767 98.68090348 -62.27163002 94.19190628 -70.7421875 85.140625 C-83.12113124 70.91687107 -84.81521769 52.26663844 -83.7421875 34.140625 C-82.12481927 19.66180981 -76.26383777 6.36861341 -64.7421875 -2.859375 C-44.36495025 -15.25552766 -18.78607681 -15.90044119 0 0 Z M-57.7421875 16.140625 C-65.29845553 27.9472938 -66.25304695 43.95029453 -63.46484375 57.4296875 C-61.07342873 66.40072547 -57.99252022 73.57987303 -50.14453125 78.90234375 C-41.93887839 83.54032145 -34.68937856 84.38969189 -25.4609375 82.73046875 C-18.67197623 80.6964744 -12.98753393 75.53044413 -9.1328125 69.7109375 C-4.75748018 61.4492806 -3.36293796 53.10249729 -3.4296875 43.828125 C-3.43532715 43.00070801 -3.4409668 42.17329102 -3.44677734 41.32080078 C-3.65649927 30.67066442 -5.54173125 21.3325662 -12.7421875 13.140625 C-18.96363853 7.26695695 -25.55430431 4.07647152 -34.1171875 3.703125 C-44.27630124 4.05440832 -51.49947159 8.20717353 -57.7421875 16.140625 Z " fill="#000000" transform="translate(1496.7421875,1022.859375)"/>
<path d="M0 0 C9.84550492 8.35939097 15.69102266 18.74703575 17.875 31.4375 C18.12218954 35.93485146 18.10619634 40.43402335 18.125 44.9375 C18.145625 46.14148437 18.16625 47.34546875 18.1875 48.5859375 C18.25056437 63.24840407 15.4075698 76.78192555 5.125 87.75 C-6.51655112 98.57109895 -19.69761884 101.78933294 -35.23828125 101.65234375 C-47.0492437 100.99947648 -58.58174537 96.78658975 -67.125 88.4375 C-79.82379937 73.63286958 -81.93984181 56.28183613 -81.125 37.4375 C-79.85685611 21.91179554 -73.39833882 9.32981034 -61.609375 -0.73828125 C-44.07620944 -13.61247671 -17.2848346 -12.92398183 0 0 Z M-53.4375 16.29296875 C-61.45427481 26.48095341 -62.70778146 39.59402259 -61.87890625 52.171875 C-60.66387409 62.02116226 -58.50799718 71.3755027 -51.125 78.4375 C-41.86080292 84.74724962 -34.08729414 86.94884808 -22.80859375 85.046875 C-15.0801979 82.61125934 -8.91702554 76.54222176 -5.1875 69.5 C0.64002636 57.32276751 0.84527571 41.01065003 -2.75 28.1875 C-5.9289677 19.436914 -11.01122662 13.25529349 -19.1875 8.75 C-31.57135286 3.21678915 -44.41278325 6.48586728 -53.4375 16.29296875 Z " fill="#000000" transform="translate(313.125,1020.5625)"/>
<path d="M0 0 C11.45944075 9.63878194 17.10717853 21.13043136 19 36 C20.06736637 54.10320599 18.76095901 71.88979765 7.3125 86.8125 C-1.49553915 96.2169168 -14.50787562 101.3958501 -27.19140625 102.203125 C-43.68203235 102.43242687 -55.75229015 98.62652104 -67.7734375 87.3125 C-78.38414868 76.2922526 -80.18666271 61.57633068 -80.25 46.9375 C-80.270625 45.77283203 -80.29125 44.60816406 -80.3125 43.40820312 C-80.37891422 28.50651354 -76.70814869 15.07934416 -66.2734375 4.1015625 C-48.51241596 -12.3167014 -19.80447588 -13.84507432 0 0 Z M-54 18 C-59.6851882 26.73754115 -61.3864752 36.03417439 -61.3125 46.3125 C-61.30686035 47.13991699 -61.3012207 47.96733398 -61.29541016 48.81982422 C-61.06334449 60.60462407 -58.50802483 70.03366357 -50.3359375 78.78125 C-43.56626635 85.08724504 -36.54581533 86.72386841 -27.3828125 86.46875 C-19.61446301 85.39230434 -13.09902503 81.83109519 -8 75.875 C0.24868601 63.94458341 1.2108303 48.96884558 -0.6875 35 C-2.52619136 25.10910856 -6.92849432 17.14567275 -15 11 C-28.34870807 3.15042748 -44.02368329 6.35726068 -54 18 Z " fill="#000000" transform="translate(200,1020)"/>
<path d="M0 0 C11.15937702 9.07305871 17.27832383 20.75312971 19 35 C20.21551056 53.49674249 19.04842907 71.54900844 7.3125 86.8125 C-1.49553915 96.2169168 -14.50787562 101.3958501 -27.19140625 102.203125 C-43.49232922 102.42978905 -55.75453212 98.69277432 -67.703125 87.5234375 C-81.18327118 72.71361703 -80.84635214 52.77334431 -80 34 C-78.90722363 21.80260963 -73.03120591 10.26110308 -64 2 C-46.22272879 -12.5558865 -18.71745751 -13.13554511 0 0 Z M-54 18 C-62.45204394 30.79635151 -62.78149841 47.32992221 -59.875 62 C-57.32766479 71.53465188 -51.77966967 79.04019294 -43.234375 84.03125 C-36.54500375 87.066763 -28.39135509 87.21546436 -21.375 85.2734375 C-12.45498341 81.56680899 -6.88399784 75.79914554 -3 67 C1.10727086 52.97067031 2.08235843 37.12530007 -4.13671875 23.51171875 C-8.38780974 16.39080609 -14.88017904 9.97373536 -22.92578125 7.37890625 C-34.99479008 5.17420972 -45.95405165 8.62799334 -54 18 Z " fill="#000000" transform="translate(1201,1020)"/>
<path d="M0 0 C11.15937702 9.07305871 17.27832383 20.75312971 19 35 C20.21551056 53.49674249 19.04842907 71.54900844 7.3125 86.8125 C-1.49553915 96.2169168 -14.50787562 101.3958501 -27.19140625 102.203125 C-39.01328649 102.36750804 -50.16083446 100.9650007 -60 94 C-60.82242187 93.41863281 -61.64484375 92.83726563 -62.4921875 92.23828125 C-67.95594983 87.87889641 -71.38288518 83.22373438 -74.5 77.0625 C-74.98932007 76.09703247 -74.98932007 76.09703247 -75.48852539 75.11206055 C-79.78631955 65.97110169 -80.36573292 56.66639169 -80.3125 46.6875 C-80.30686035 45.58390137 -80.3012207 44.48030273 -80.29541016 43.34326172 C-80.0703721 28.24788737 -76.66621387 15.14263558 -66.015625 3.84375 C-48.29531882 -12.36552232 -19.61038843 -13.76218654 0 0 Z M-54 18 C-62.45204394 30.79635151 -62.78149841 47.32992221 -59.875 62 C-57.32766479 71.53465188 -51.77966967 79.04019294 -43.234375 84.03125 C-36.54583073 87.06638773 -28.43858482 87.18496156 -21.41015625 85.30859375 C-19.11797588 84.37213032 -17.09881537 83.31124418 -15 82 C-14.37480469 81.61070313 -13.74960938 81.22140625 -13.10546875 80.8203125 C-5.59179594 75.28736825 -2.1346969 66.31705088 -0.625 57.375 C0.93919492 43.95165381 0.47519155 30.69748994 -7 19 C-9.37500791 16.12359384 -9.37500791 16.12359384 -12 14 C-12.763125 13.29875 -13.52625 12.5975 -14.3125 11.875 C-27.34413527 2.78316144 -43.85688158 6.18518723 -54 18 Z " fill="#000000" transform="translate(1887,1020)"/>
<path d="M0 0 C4.48489631 3.50156471 8.76741013 7.19907823 13 11 C13.50966309 11.4547168 14.01932617 11.90943359 14.54443359 12.37792969 C24.64516544 21.40761114 34.34288114 30.66591263 42.70605469 41.35986328 C44.15175858 43.19236116 45.62720927 44.99907866 47.1015625 46.80859375 C68.05712276 72.90244501 79.97510733 106.16445732 77 140 C75.98828125 142.83984375 75.98828125 142.83984375 75 145 C73.19140625 144.8125 73.19140625 144.8125 71 144 C64.60903864 135.74956578 64.11824262 125.55410569 63.10205078 115.58374023 C58.81922637 74.73896024 34.78925159 40.93530466 4 15 C3.19393311 14.31526611 3.19393311 14.31526611 2.37158203 13.61669922 C-32.19751533 -15.62256706 -80.11554924 -42.75375539 -127 -40 C-139.75104012 -38.84480256 -152.77998203 -37.16234627 -163.23046875 -29.26953125 C-165 -28 -165 -28 -168 -27 C-169.08981006 -25.16501763 -169.08981006 -25.16501763 -170 -23 C-170.60328125 -22.00613281 -170.60328125 -22.00613281 -171.21875 -20.9921875 C-176.98180334 -11.46909326 -178.15148349 -1.90830179 -176 9 C-175.18724689 12.05578399 -174.20680645 15.04381862 -173.1953125 18.0390625 C-172.89344528 18.93773544 -172.59157806 19.83640839 -172.28056335 20.76231384 C-168.37150788 32.14401802 -163.80345428 43.27393303 -159.29110146 54.42592812 C-145.06472675 89.59167577 -132.18322449 124.11856697 -124.72021484 161.40917969 C-124.28078844 163.60005549 -123.8306971 165.78887121 -123.36181641 167.97363281 C-121.09470615 178.62602821 -119.84155116 190.45895488 -126 200 C-129.03405344 203.70114988 -132.25883891 207.1465761 -135.60693359 210.5625 C-137.63334446 212.65354577 -139.56503444 214.82447116 -141.5 217 C-144.82949339 220.71068763 -148.18833303 224.39253626 -151.5625 228.0625 C-156.09585907 232.99416119 -160.57093188 237.97446712 -165 243 C-165.99 242.34 -166.98 241.68 -168 241 C-166.34810111 237.08263978 -163.69552663 234.10939505 -160.9375 230.9375 C-159.93684296 229.77009412 -158.93685221 228.60211682 -157.9375 227.43359375 C-157.43992187 226.85335449 -156.94234375 226.27311523 -156.4296875 225.67529297 C-152.87676687 221.51201746 -149.42680765 217.26723371 -146 213 C-145.36698975 212.21858643 -145.36698975 212.21858643 -144.72119141 211.42138672 C-134.03934751 198.18407777 -128.64396731 187.76098089 -130.234375 170.44873047 C-133.63096881 139.5274365 -144.95842731 111.4386532 -156.375 82.75 C-189.22709331 0.11282658 -189.22709331 0.11282658 -181.375 -21.6875 C-180.25 -23.9375 -180.25 -23.9375 -179 -26 C-178.5875 -26.70125 -178.175 -27.4025 -177.75 -28.125 C-172.224632 -36.413052 -164.1503427 -40.83273641 -155.0625 -44.3125 C-154.11528076 -44.67625732 -154.11528076 -44.67625732 -153.14892578 -45.04736328 C-101.23821382 -63.66679482 -40.25328278 -30.42357489 0 0 Z " fill="#000000" transform="translate(1814,49)"/>
<path d="M0 0 C6.52606015 6.38103659 9.82418652 14.62514034 10.12025452 23.67634583 C10.12313451 25.11862069 10.12053796 26.56091313 10.11352539 28.00317383 C10.11367142 28.79394318 10.11381744 29.58471252 10.1139679 30.39944458 C10.11327362 33.00200179 10.105504 35.60448661 10.09765625 38.20703125 C10.09579035 40.01592469 10.09436726 41.82481864 10.09336853 43.63371277 C10.08955694 48.38643803 10.07973825 53.13913256 10.06866455 57.8918457 C10.05842123 62.7449502 10.05386465 67.59805968 10.04882812 72.45117188 C10.03811475 81.96746357 10.02052895 91.48372442 10 101 C3.73 101 -2.54 101 -9 101 C-9.01458252 98.73962891 -9.02916504 96.47925781 -9.04418945 94.15039062 C-9.09464075 86.66245407 -9.16125422 79.17472318 -9.23571491 71.68698883 C-9.2803459 67.14941705 -9.31961787 62.61193355 -9.34643555 58.07421875 C-9.37254131 53.69091165 -9.41299464 49.3079456 -9.46318626 44.92485046 C-9.47980595 43.25685383 -9.49135063 41.58879827 -9.49761391 39.92073059 C-9.50730874 37.57504958 -9.53543017 35.23023148 -9.56762695 32.88476562 C-9.56619186 32.2028717 -9.56475677 31.52097778 -9.5632782 30.81842041 C-9.66772177 25.39993805 -10.67610598 19.65143622 -14.34547901 15.4648819 C-20.38075151 10.17789831 -25.94624589 9.556841 -33.703125 9.6796875 C-38.41602432 10.13757582 -41.9727192 11.57687717 -46 14 C-46.928125 14.556875 -47.85625 15.11375 -48.8125 15.6875 C-54.59163445 21.79687071 -56.10298852 29.75165921 -56.20532227 37.87988281 C-56.22017166 38.90488388 -56.22017166 38.90488388 -56.23532104 39.95059204 C-56.26682044 42.20140154 -56.29164752 44.45223211 -56.31640625 46.703125 C-56.33698577 48.26683083 -56.35798251 49.83053122 -56.37937927 51.39422607 C-56.43449686 55.50410551 -56.48395148 59.61403428 -56.53222656 63.72399902 C-56.58251702 67.92021054 -56.63816366 72.11635065 -56.69335938 76.3125 C-56.80081477 84.54160786 -56.90179246 92.77077658 -57 101 C-63.27 101 -69.54 101 -76 101 C-76 66.02 -76 31.04 -76 -5 C-70.39 -5 -64.78 -5 -59 -5 C-58.67 -1.37 -58.34 2.26 -58 6 C-57.05125 4.948125 -56.1025 3.89625 -55.125 2.8125 C-40.60501926 -11.64893243 -16.24839248 -11.52158739 0 0 Z " fill="#000000" transform="translate(2002,1019)"/>
<path d="M0 0 C0.66 0 1.32 0 2 0 C2.22550537 1.63521606 2.22550537 1.63521606 2.45556641 3.3034668 C10.24353006 59.46238032 22.10965308 105.07889224 55 152 C55.56992676 152.8137207 56.13985352 153.62744141 56.72705078 154.46582031 C60.8884403 160.39730724 65.0711439 166.313379 69.296875 172.19921875 C70.26367188 173.55466797 70.26367188 173.55466797 71.25 174.9375 C71.79140625 175.68902344 72.3328125 176.44054687 72.890625 177.21484375 C74 179 74 179 74 181 C40.28553502 168.84068476 14.39514907 130.80950935 -0.41015625 100.05078125 C-17.77215571 63.04051698 -13.56021049 37.91997402 0 0 Z " fill="#ED212B" transform="translate(1233,388)"/>
<path d="M0 0 C0 12.21 0 24.42 0 37 C5.94 37 11.88 37 18 37 C18 41.62 18 46.24 18 51 C12.06 51 6.12 51 0 51 C0.04031987 60.05806751 0.09737718 69.11560497 0.18390274 78.17335129 C0.22341113 82.37925527 0.2555829 86.58494885 0.27099609 90.79101562 C0.28614087 94.85020582 0.32054669 98.90881768 0.36830902 102.96775055 C0.3831455 104.51623762 0.39104232 106.06480726 0.39188385 107.61336517 C0.39424863 109.78290958 0.42128424 111.95084929 0.45410156 114.12011719 C0.46298401 115.35477722 0.47186646 116.58943726 0.48101807 117.86151123 C1.09672259 121.58491969 1.99988258 122.77472217 5 125 C8.2625342 125.6960228 8.2625342 125.6960228 11.75 125.75 C13.50570312 125.83507813 13.50570312 125.83507813 15.296875 125.921875 C16.18890625 125.94765625 17.0809375 125.9734375 18 126 C18.33895656 127.72807318 18.67091525 129.45751974 19 131.1875 C19.2784375 132.63189453 19.2784375 132.63189453 19.5625 134.10546875 C19.96877612 136.7934206 20.07933572 139.28771019 20 142 C11.24465457 145.33536969 0.56853757 145.44523106 -8.16796875 141.9765625 C-13.2301799 139.27815571 -15.91565996 135.21085009 -18 130 C-18.85526078 125.15842823 -19.12215679 120.50721152 -19.11352539 115.59594727 C-19.11367142 114.892668 -19.11381744 114.18938873 -19.1139679 113.46479797 C-19.11327726 111.16530149 -19.1055251 108.86588839 -19.09765625 106.56640625 C-19.09578905 104.96215357 -19.09436657 103.35790031 -19.09336853 101.75364685 C-19.08956715 97.55004273 -19.0797574 93.34647366 -19.06866455 89.1428833 C-19.05839906 84.8459114 -19.05385994 80.54893378 -19.04882812 76.25195312 C-19.03813281 67.83461761 -19.0205555 59.41731722 -19 51 C-23.29 51 -27.58 51 -32 51 C-32 46.38 -32 41.76 -32 37 C-27.71 37 -23.42 37 -19 37 C-19.19722656 35.16695312 -19.39445312 33.33390625 -19.59765625 31.4453125 C-21.00126052 12.76449864 -21.00126052 12.76449864 -17.36376953 7.73974609 C-12.81358128 3.88860015 -6.13118528 0 0 0 Z " fill="#000000" transform="translate(486,977)"/>
<path d="M0 0 C0 12.21 0 24.42 0 37 C5.94 37 11.88 37 18 37 C18 41.62 18 46.24 18 51 C12.06 51 6.12 51 0 51 C0.08556248 59.7798927 0.1793441 68.55959257 0.28752708 77.33923626 C0.33743569 81.41614579 0.38376611 85.4930301 0.421875 89.57006836 C0.45879662 93.50592374 0.50517505 97.44156525 0.55806351 101.37723732 C0.57657097 102.8774623 0.59169237 104.37773307 0.60334396 105.87802696 C0.62026923 107.98230177 0.6493183 110.08609067 0.68115234 112.19018555 C0.69447601 113.38709518 0.70779968 114.58400482 0.7215271 115.81718445 C0.99762525 118.97285774 1.54940297 121.19496894 3 124 C5.83269666 125.41634833 8.47466438 125.3463005 11.625 125.5625 C13.40777344 125.68818359 13.40777344 125.68818359 15.2265625 125.81640625 C16.14179687 125.87699219 17.05703125 125.93757813 18 126 C18.52773343 128.64463022 19.04747257 131.29039393 19.5625 133.9375 C19.71396484 134.69224609 19.86542969 135.44699219 20.02148438 136.22460938 C20.39117799 138.14185767 20.70042238 140.0705525 21 142 C18.05420402 144.94579598 10.483656 144.15511502 6.625 144.25 C-1.86817575 144.1526012 -8.36177218 142.52017531 -14.62890625 136.5859375 C-21.62372918 128.4950597 -19.13524535 112.32260502 -19.09765625 102.26953125 C-19.09578658 100.7830968 -19.09436527 99.29666173 -19.09336853 97.81022644 C-19.08958656 93.9354781 -19.07979423 90.06076843 -19.06866455 86.18603516 C-19.0583565 82.21712771 -19.05385097 78.2482139 -19.04882812 74.27929688 C-19.0381672 66.51951174 -19.02060648 58.75976626 -19 51 C-23.29 51 -27.58 51 -32 51 C-32 46.38 -32 41.76 -32 37 C-27.71 37 -23.42 37 -19 37 C-19.10441406 35.19273437 -19.20882813 33.38546875 -19.31640625 31.5234375 C-19.40083365 29.1407087 -19.48273272 26.75788936 -19.5625 24.375 C-19.63791016 23.18519531 -19.71332031 21.99539063 -19.79101562 20.76953125 C-20.00875574 12.10831344 -20.00875574 12.10831344 -17.11254883 8.92626953 C-14.80136863 7.38326098 -12.51085482 6.18363724 -10 5 C-8.50820369 4.06144762 -7.02681523 3.10587599 -5.5625 2.125 C-2.25471698 0 -2.25471698 0 0 0 Z " fill="#000000" transform="translate(1734,977)"/>
<path d="M0 0 C1.36527726 0.95592667 2.70928196 1.94556901 4 3 C2.49829538 8.98551772 1.05773837 14.61255621 -2 20 C-4.76276177 19.47731534 -7.3260876 18.89130413 -10 18 C-15.24003023 17.49820747 -19.62706251 17.350975 -24.4375 19.625 C-31.76540363 26.41671556 -33.50499447 34.94019945 -34.29989624 44.67129517 C-34.43829601 48.61124119 -34.49399881 52.54646926 -34.51171875 56.48828125 C-34.5286145 57.92703227 -34.54677108 59.36576897 -34.56611633 60.80448914 C-34.6130924 64.54433714 -34.64323714 68.28412714 -34.66955566 72.02416992 C-34.69962973 75.85932885 -34.74606576 79.69428856 -34.79101562 83.52929688 C-34.87645055 91.01944805 -34.94254006 98.5095724 -35 106 C-41.27 106 -47.54 106 -54 106 C-54 71.02 -54 36.04 -54 0 C-48.39 0 -42.78 0 -37 0 C-36.67 3.63 -36.34 7.26 -36 11 C-35.52691406 10.32453125 -35.05382813 9.6490625 -34.56640625 8.953125 C-25.29613085 -3.5518079 -14.33864179 -6.01777194 0 0 Z " fill="#000000" transform="translate(1586,1014)"/>
<path d="M0 0 C0.99 0.66 1.98 1.32 3 2 C1.33846988 7.85659906 -0.47041916 13.4590134 -3 19 C-5.76276177 18.47731534 -8.3260876 17.89130413 -11 17 C-16.2674928 16.49557761 -20.63179168 16.3283341 -25.4375 18.6875 C-32.62248023 25.17150655 -34.51475126 32.07509662 -35.29989624 41.66174316 C-35.43948521 45.71943802 -35.49410716 49.76853909 -35.51171875 53.828125 C-35.52860746 55.31314536 -35.54676316 56.7981518 -35.56611633 58.28314209 C-35.61316847 62.14959353 -35.64326495 66.01598851 -35.66955566 69.88262939 C-35.6995902 73.84504345 -35.7460404 77.8072636 -35.79101562 81.76953125 C-35.87653772 89.51294007 -35.94258538 97.25632242 -36 105 C-42.27 105 -48.54 105 -55 105 C-55 70.02 -55 35.04 -55 -1 C-49.39 -1 -43.78 -1 -38 -1 C-37.67 2.63 -37.34 6.26 -37 10 C-35.96875 8.5975 -34.9375 7.195 -33.875 5.75 C-24.54144763 -6.24220061 -13.18876966 -5.92413588 0 0 Z " fill="#000000" transform="translate(575,1015)"/>
<path d="M0 0 C-1.98 5.61 -3.96 11.22 -6 17 C-11 16 -11 16 -14 15 C-21.09113208 14.31121169 -26.37856502 14.41107348 -32 19 C-39.76421527 30.03592863 -39.14369615 44.92837469 -39.31640625 57.78515625 C-39.33718735 59.08198837 -39.35796844 60.3788205 -39.37937927 61.71495056 C-39.43409819 65.13263091 -39.48372476 68.55036618 -39.53222656 71.96813965 C-39.58281239 75.46774071 -39.6383032 78.96726379 -39.69335938 82.46679688 C-39.80032538 89.31113142 -39.90144788 96.15553918 -40 103 C-45.94 103 -51.88 103 -58 103 C-58 68.02 -58 33.04 -58 -3 C-52.39 -3 -46.78 -3 -41 -3 C-40.67 0.63 -40.34 4.26 -40 8 C-39.113125 6.7625 -38.22625 5.525 -37.3125 4.25 C-27.22087776 -9.12671707 -13.36108381 -8.01665029 0 0 Z " fill="#000000" transform="translate(1298,1017)"/>
<path d="M0 0 C6.27 0 12.54 0 19 0 C19 34.98 19 69.96 19 106 C12.73 106 6.46 106 0 106 C0 71.02 0 36.04 0 0 Z " fill="#000000" transform="translate(1768,1014)"/>
<path d="M0 0 C0.66 0.33 1.32 0.66 2 1 C1.80889648 1.58676514 1.61779297 2.17353027 1.42089844 2.77807617 C-3.071583 16.70017342 -6.81374184 30.52128392 -9 45 C-9.1023999 45.66177246 -9.2047998 46.32354492 -9.31030273 47.00537109 C-13.84120617 81.04617477 -8.17416385 116.58368142 2.54467773 148.90405273 C3 151 3 151 2 154 C-21.51450242 123.35610057 -32.48146194 86.6439595 -28.6015625 48.03515625 C-25.22963476 28.92026716 -13.90304107 13.01561291 0 0 Z " fill="#ED212B" transform="translate(1276,324)"/>
<path d="M0 0 C0.495 0.99 0.495 0.99 1 2 C-0.36671845 4.66894008 -1.79670165 7.22946145 -3.3125 9.8125 C-26.74865752 50.99828374 -37.41325068 93.7813416 -37 141 C-38.65 141 -40.3 141 -42 141 C-42.5566692 137.10873141 -43.10771263 133.21670716 -43.65405273 129.32397461 C-43.92996458 127.3659749 -44.21004124 125.40856351 -44.49023438 123.45117188 C-48.15448115 97.26846307 -46.56415269 72.92716088 -42.0625 46.9375 C-41.9171582 46.06480469 -41.77181641 45.19210937 -41.62207031 44.29296875 C-39.69163335 33.77963763 -35.59500728 24.57153914 -26.59375 18.33203125 C-24.77691747 17.20719817 -22.95086484 16.09715874 -21.1171875 15 C-16.76079285 12.20491973 -12.7840651 8.99363818 -8.77124023 5.73120117 C-5.96750271 3.46869781 -3.33015513 1.41552048 0 0 Z " fill="#ED212B" transform="translate(1333,279)"/>
<path d="M0 0 C-2.20481592 8.8192637 -8.64591846 15.90298901 -16 21 C-29.40903224 28.4451872 -42.11364547 27.36406171 -56.5625 24 C-57.99574238 23.68034628 -59.42926007 23.36192469 -60.86303711 23.04467773 C-74.63899084 19.96685945 -88.33841974 16.5478063 -102 13 C-101.67 11.68 -101.34 10.36 -101 9 C-82.02657682 6.91287104 -63.04239092 4.99335057 -44.03833008 3.21020508 C-40.46586072 2.87479065 -36.89395295 2.53372412 -33.32213306 2.19147205 C-30.51611281 1.92352219 -27.70974354 1.65937871 -24.903265 1.39627647 C-22.95502365 1.21273031 -21.00714481 1.02534889 -19.0592804 0.83784485 C-12.67271477 0.24525685 -6.41390352 -0.13323672 0 0 Z " fill="#ED212B" transform="translate(1799,612)"/>
<path d="M0 0 C0.495 0.99 0.495 0.99 1 2 C0.27490234 3.86010742 0.27490234 3.86010742 -0.9140625 6.10546875 C-1.34589844 6.92466797 -1.77773437 7.74386719 -2.22265625 8.58789062 C-2.68542969 9.44576172 -3.14820313 10.30363281 -3.625 11.1875 C-4.06457031 12.02603516 -4.50414062 12.86457031 -4.95703125 13.72851562 C-12.78447573 28.4307977 -12.78447573 28.4307977 -18.92382812 30.59179688 C-23.35357647 31.46274457 -27.7736985 31.05059476 -32.25 30.75 C-34.47649695 30.62770694 -36.70306252 30.50665817 -38.9296875 30.38671875 C-40.08436523 30.3201709 -41.23904297 30.25362305 -42.42871094 30.18505859 C-46.03833591 29.99801349 -49.64487782 29.87299389 -53.2578125 29.76953125 C-55.04203613 29.71684082 -55.04203613 29.71684082 -56.86230469 29.66308594 C-59.14147138 29.59782206 -61.4207715 29.53700836 -63.70019531 29.48144531 C-71.63539807 29.22703423 -79.43058244 28.52313919 -87 26 C-87 25.34 -87 24.68 -87 24 C-86.15630859 23.84442627 -85.31261719 23.68885254 -84.44335938 23.52856445 C-40.88159174 16.09384763 -40.88159174 16.09384763 0 0 Z " fill="#ED212B" transform="translate(1823,572)"/>
<path d="M0 0 C-0.4049197 5.77010567 -1.407851 11.2665532 -2.8125 16.875 C-3.28623047 18.78925781 -3.28623047 18.78925781 -3.76953125 20.7421875 C-5.16062727 24.42527982 -5.63335163 25.12020572 -9 27 C-12.03209832 27.76530681 -15.09309605 28.16623771 -18.19140625 28.5703125 C-19.09189194 28.69687225 -19.99237762 28.82343201 -20.92015076 28.9538269 C-23.79951732 29.355379 -26.68086872 29.74007592 -29.5625 30.125 C-31.47475356 30.39089215 -33.38686499 30.65780866 -35.29882812 30.92578125 C-44.17996183 32.15807647 -53.05223339 33.36285662 -62 34 C-59.20351078 30.96729065 -56.59001403 29.04251572 -52.9140625 27.1875 C-51.91117188 26.67509766 -50.90828125 26.16269531 -49.875 25.63476562 C-48.8025 25.09529297 -47.73 24.55582031 -46.625 24 C-44.36623661 22.84560869 -42.10844295 21.68931822 -39.8515625 20.53125 C-38.70977539 19.94601562 -37.56798828 19.36078125 -36.39160156 18.7578125 C-31.22103834 16.07799281 -26.10658526 13.2993878 -21 10.5 C-20.12424316 10.02046875 -19.24848633 9.5409375 -18.34619141 9.046875 C-13.38312431 6.32302501 -13.38312431 6.32302501 -8.44921875 3.546875 C-7.64097656 3.08796875 -6.83273437 2.6290625 -6 2.15625 C-5.278125 1.74181641 -4.55625 1.32738281 -3.8125 0.90039062 C-2 0 -2 0 0 0 Z " fill="#ED212B" transform="translate(1835,537)"/>
<path d="M0 0 C6.27 0 12.54 0 19 0 C19 6.93 19 13.86 19 21 C12.73 21 6.46 21 0 21 C0 14.07 0 7.14 0 0 Z " fill="#000000" transform="translate(1768,974)"/>
</svg>
